<svg width="194" height="194" viewBox="0 0 194 194" fill="none" xmlns="http://www.w3.org/2000/svg">
<circle cx="97" cy="97" r="96.3" stroke="#3B7A2C" stroke-width="1.4"/>
<path d="M13.78 105V90.8H24.5V105H23.1V92.04H15.18V105H13.78ZM32.2173 105.2C31.4707 105.2 30.7773 105.06 30.1373 104.78C29.5107 104.487 28.964 104.093 28.4973 103.6C28.044 103.093 27.6907 102.52 27.4373 101.88C27.184 101.227 27.0573 100.54 27.0573 99.82C27.0573 99.0733 27.184 98.38 27.4373 97.74C27.6907 97.0867 28.0507 96.5133 28.5173 96.02C28.984 95.5133 29.5307 95.12 30.1573 94.84C30.7973 94.5467 31.4907 94.4 32.2373 94.4C32.984 94.4 33.6707 94.5467 34.2973 94.84C34.924 95.12 35.4707 95.5133 35.9373 96.02C36.404 96.5133 36.764 97.0867 37.0173 97.74C37.2707 98.38 37.3973 99.0733 37.3973 99.82C37.3973 100.54 37.2707 101.227 37.0173 101.88C36.764 102.52 36.404 103.093 35.9373 103.6C35.484 104.093 34.9373 104.487 34.2973 104.78C33.6707 105.06 32.9773 105.2 32.2173 105.2ZM28.4373 99.84C28.4373 100.613 28.604 101.32 28.9373 101.96C29.284 102.587 29.744 103.087 30.3173 103.46C30.8907 103.82 31.524 104 32.2173 104C32.9107 104 33.544 103.813 34.1173 103.44C34.6907 103.067 35.1507 102.56 35.4973 101.92C35.844 101.267 36.0173 100.56 36.0173 99.8C36.0173 99.0267 35.844 98.32 35.4973 97.68C35.1507 97.04 34.6907 96.5333 34.1173 96.16C33.544 95.7867 32.9107 95.6 32.2173 95.6C31.524 95.6 30.8907 95.7933 30.3173 96.18C29.7573 96.5667 29.304 97.08 28.9573 97.72C28.6107 98.3467 28.4373 99.0533 28.4373 99.84ZM39.6519 105V94.58H41.0119V99.04H42.5719L46.0719 94.58H47.6319L43.6519 99.64L48.1319 105H46.5319L42.5719 100.3H41.0119V105H39.6519ZM49.1834 102C49.1834 101.347 49.3701 100.787 49.7434 100.32C50.1168 99.84 50.6301 99.4733 51.2834 99.22C51.9501 98.9533 52.7168 98.82 53.5834 98.82C54.0901 98.82 54.6168 98.86 55.1634 98.94C55.7101 99.02 56.1968 99.14 56.6234 99.3V98.42C56.6234 97.54 56.3634 96.84 55.8434 96.32C55.3234 95.8 54.6034 95.54 53.6834 95.54C53.1234 95.54 52.5701 95.6467 52.0234 95.86C51.4901 96.06 50.9301 96.36 50.3434 96.76L49.8234 95.8C50.5034 95.3333 51.1701 94.9867 51.8234 94.76C52.4768 94.52 53.1434 94.4 53.8234 94.4C55.1034 94.4 56.1168 94.7667 56.8634 95.5C57.6101 96.2333 57.9834 97.2467 57.9834 98.54V103.36C57.9834 103.547 58.0234 103.687 58.1034 103.78C58.1834 103.86 58.3101 103.907 58.4834 103.92V105C58.3368 105.013 58.2101 105.027 58.1034 105.04C57.9968 105.053 57.9168 105.053 57.8634 105.04C57.5301 105.027 57.2768 104.92 57.1034 104.72C56.9301 104.52 56.8368 104.307 56.8234 104.08L56.8034 103.32C56.3368 103.92 55.7301 104.387 54.9834 104.72C54.2368 105.04 53.4768 105.2 52.7034 105.2C52.0368 105.2 51.4301 105.06 50.8834 104.78C50.3501 104.487 49.9301 104.1 49.6234 103.62C49.3301 103.127 49.1834 102.587 49.1834 102ZM56.1634 102.8C56.3101 102.613 56.4234 102.433 56.5034 102.26C56.5834 102.087 56.6234 101.933 56.6234 101.8V100.28C56.1701 100.107 55.6968 99.9733 55.2034 99.88C54.7234 99.7867 54.2368 99.74 53.7434 99.74C52.7701 99.74 51.9834 99.9333 51.3834 100.32C50.7834 100.707 50.4834 101.233 50.4834 101.9C50.4834 102.287 50.5834 102.653 50.7834 103C50.9834 103.333 51.2768 103.613 51.6634 103.84C52.0501 104.053 52.5034 104.16 53.0234 104.16C53.6768 104.16 54.2834 104.033 54.8434 103.78C55.4168 103.527 55.8568 103.2 56.1634 102.8ZM63.9419 105.12C62.9819 105.12 62.1619 104.94 61.4819 104.58C60.8019 104.207 60.2819 103.687 59.9219 103.02L61.0419 102.52C61.2952 102.987 61.6619 103.353 62.1419 103.62C62.6219 103.873 63.2019 104 63.8819 104C64.6952 104 65.3419 103.813 65.8219 103.44C66.3152 103.067 66.5619 102.567 66.5619 101.94C66.5619 101.367 66.3685 100.907 65.9819 100.56C65.5952 100.213 65.0619 100.033 64.3819 100.02H63.3219V99.08H64.4619C64.7552 99.08 65.0219 99 65.2619 98.84C65.5019 98.68 65.6885 98.4667 65.8219 98.2C65.9552 97.9333 66.0219 97.6333 66.0219 97.3C66.0219 96.78 65.8352 96.36 65.4619 96.04C65.1019 95.72 64.5685 95.56 63.8619 95.56C63.2752 95.56 62.7819 95.68 62.3819 95.92C61.9952 96.1467 61.6819 96.4867 61.4419 96.94L60.4019 96.38C60.7085 95.7667 61.1619 95.2867 61.7619 94.94C62.3752 94.5933 63.0885 94.42 63.9019 94.42C64.5685 94.42 65.1485 94.5333 65.6419 94.76C66.1485 94.9733 66.5419 95.2867 66.8219 95.7C67.1152 96.1 67.2619 96.5867 67.2619 97.16C67.2619 97.6533 67.1419 98.1133 66.9019 98.54C66.6619 98.9533 66.3285 99.2667 65.9019 99.48C66.5152 99.6667 66.9885 99.9933 67.3219 100.46C67.6685 100.927 67.8419 101.473 67.8419 102.1C67.8419 102.727 67.6752 103.267 67.3419 103.72C67.0085 104.173 66.5485 104.52 65.9619 104.76C65.3752 105 64.7019 105.12 63.9419 105.12ZM69.2811 102C69.2811 101.347 69.4678 100.787 69.8411 100.32C70.2144 99.84 70.7278 99.4733 71.3811 99.22C72.0478 98.9533 72.8144 98.82 73.6811 98.82C74.1878 98.82 74.7144 98.86 75.2611 98.94C75.8078 99.02 76.2944 99.14 76.7211 99.3V98.42C76.7211 97.54 76.4611 96.84 75.9411 96.32C75.4211 95.8 74.7011 95.54 73.7811 95.54C73.2211 95.54 72.6678 95.6467 72.1211 95.86C71.5878 96.06 71.0278 96.36 70.4411 96.76L69.9211 95.8C70.6011 95.3333 71.2678 94.9867 71.9211 94.76C72.5744 94.52 73.2411 94.4 73.9211 94.4C75.2011 94.4 76.2144 94.7667 76.9611 95.5C77.7078 96.2333 78.0811 97.2467 78.0811 98.54V103.36C78.0811 103.547 78.1211 103.687 78.2011 103.78C78.2811 103.86 78.4078 103.907 78.5811 103.92V105C78.4344 105.013 78.3078 105.027 78.2011 105.04C78.0944 105.053 78.0144 105.053 77.9611 105.04C77.6278 105.027 77.3744 104.92 77.2011 104.72C77.0278 104.52 76.9344 104.307 76.9211 104.08L76.9011 103.32C76.4344 103.92 75.8278 104.387 75.0811 104.72C74.3344 105.04 73.5744 105.2 72.8011 105.2C72.1344 105.2 71.5278 105.06 70.9811 104.78C70.4478 104.487 70.0278 104.1 69.7211 103.62C69.4278 103.127 69.2811 102.587 69.2811 102ZM76.2611 102.8C76.4078 102.613 76.5211 102.433 76.6011 102.26C76.6811 102.087 76.7211 101.933 76.7211 101.8V100.28C76.2678 100.107 75.7944 99.9733 75.3011 99.88C74.8211 99.7867 74.3344 99.74 73.8411 99.74C72.8678 99.74 72.0811 99.9333 71.4811 100.32C70.8811 100.707 70.5811 101.233 70.5811 101.9C70.5811 102.287 70.6811 102.653 70.8811 103C71.0811 103.333 71.3744 103.613 71.7611 103.84C72.1478 104.053 72.6011 104.16 73.1211 104.16C73.7744 104.16 74.3811 104.033 74.9411 103.78C75.5144 103.527 75.9544 103.2 76.2611 102.8ZM83.4633 105V95.8H79.7433V94.58H88.5433V95.8H84.8233V105H83.4633ZM90.3745 105V94.58H91.7345V98.26H94.4345C95.6212 98.26 96.5145 98.5667 97.1145 99.18C97.7279 99.78 98.0345 100.573 98.0345 101.56C98.0345 102.2 97.9012 102.78 97.6345 103.3C97.3679 103.82 96.9745 104.233 96.4545 104.54C95.9479 104.847 95.3079 105 94.5345 105H90.3745ZM91.7345 103.92H94.3545C94.9012 103.92 95.3412 103.813 95.6745 103.6C96.0079 103.373 96.2545 103.087 96.4145 102.74C96.5745 102.38 96.6545 101.993 96.6545 101.58C96.6545 101.18 96.5812 100.813 96.4345 100.48C96.3012 100.133 96.0612 99.86 95.7145 99.66C95.3812 99.4467 94.9145 99.34 94.3145 99.34H91.7345V103.92ZM105.238 105V94.58H106.598V99.04H108.158L111.658 94.58H113.218L109.238 99.64L113.718 105H112.118L108.158 100.3H106.598V105H105.238ZM114.769 102C114.769 101.347 114.956 100.787 115.329 100.32C115.703 99.84 116.216 99.4733 116.869 99.22C117.536 98.9533 118.303 98.82 119.169 98.82C119.676 98.82 120.203 98.86 120.749 98.94C121.296 99.02 121.783 99.14 122.209 99.3V98.42C122.209 97.54 121.949 96.84 121.429 96.32C120.909 95.8 120.189 95.54 119.269 95.54C118.709 95.54 118.156 95.6467 117.609 95.86C117.076 96.06 116.516 96.36 115.929 96.76L115.409 95.8C116.089 95.3333 116.756 94.9867 117.409 94.76C118.063 94.52 118.729 94.4 119.409 94.4C120.689 94.4 121.703 94.7667 122.449 95.5C123.196 96.2333 123.569 97.2467 123.569 98.54V103.36C123.569 103.547 123.609 103.687 123.689 103.78C123.769 103.86 123.896 103.907 124.069 103.92V105C123.923 105.013 123.796 105.027 123.689 105.04C123.583 105.053 123.503 105.053 123.449 105.04C123.116 105.027 122.863 104.92 122.689 104.72C122.516 104.52 122.423 104.307 122.409 104.08L122.389 103.32C121.923 103.92 121.316 104.387 120.569 104.72C119.823 105.04 119.063 105.2 118.289 105.2C117.623 105.2 117.016 105.06 116.469 104.78C115.936 104.487 115.516 104.1 115.209 103.62C114.916 103.127 114.769 102.587 114.769 102ZM121.749 102.8C121.896 102.613 122.009 102.433 122.089 102.26C122.169 102.087 122.209 101.933 122.209 101.8V100.28C121.756 100.107 121.283 99.9733 120.789 99.88C120.309 99.7867 119.823 99.74 119.329 99.74C118.356 99.74 117.569 99.9333 116.969 100.32C116.369 100.707 116.069 101.233 116.069 101.9C116.069 102.287 116.169 102.653 116.369 103C116.569 103.333 116.863 103.613 117.249 103.84C117.636 104.053 118.089 104.16 118.609 104.16C119.263 104.16 119.869 104.033 120.429 103.78C121.003 103.527 121.443 103.2 121.749 102.8ZM128.952 105V95.8H125.232V94.58H134.032V95.8H130.312V105H128.952ZM134.984 102C134.984 101.347 135.171 100.787 135.544 100.32C135.918 99.84 136.431 99.4733 137.084 99.22C137.751 98.9533 138.518 98.82 139.384 98.82C139.891 98.82 140.418 98.86 140.964 98.94C141.511 99.02 141.998 99.14 142.424 99.3V98.42C142.424 97.54 142.164 96.84 141.644 96.32C141.124 95.8 140.404 95.54 139.484 95.54C138.924 95.54 138.371 95.6467 137.824 95.86C137.291 96.06 136.731 96.36 136.144 96.76L135.624 95.8C136.304 95.3333 136.971 94.9867 137.624 94.76C138.278 94.52 138.944 94.4 139.624 94.4C140.904 94.4 141.918 94.7667 142.664 95.5C143.411 96.2333 143.784 97.2467 143.784 98.54V103.36C143.784 103.547 143.824 103.687 143.904 103.78C143.984 103.86 144.111 103.907 144.284 103.92V105C144.138 105.013 144.011 105.027 143.904 105.04C143.798 105.053 143.718 105.053 143.664 105.04C143.331 105.027 143.078 104.92 142.904 104.72C142.731 104.52 142.638 104.307 142.624 104.08L142.604 103.32C142.138 103.92 141.531 104.387 140.784 104.72C140.038 105.04 139.278 105.2 138.504 105.2C137.838 105.2 137.231 105.06 136.684 104.78C136.151 104.487 135.731 104.1 135.424 103.62C135.131 103.127 134.984 102.587 134.984 102ZM141.964 102.8C142.111 102.613 142.224 102.433 142.304 102.26C142.384 102.087 142.424 101.933 142.424 101.8V100.28C141.971 100.107 141.498 99.9733 141.004 99.88C140.524 99.7867 140.038 99.74 139.544 99.74C138.571 99.74 137.784 99.9333 137.184 100.32C136.584 100.707 136.284 101.233 136.284 101.9C136.284 102.287 136.384 102.653 136.584 103C136.784 103.333 137.078 103.613 137.464 103.84C137.851 104.053 138.304 104.16 138.824 104.16C139.478 104.16 140.084 104.033 140.644 103.78C141.218 103.527 141.658 103.2 141.964 102.8ZM145.723 105.06V103.82C146.083 103.82 146.403 103.727 146.683 103.54C146.963 103.34 147.209 103.007 147.423 102.54C147.649 102.073 147.829 101.433 147.963 100.62C148.096 99.7933 148.183 98.7467 148.223 97.48L148.343 94.58H155.103V105H153.743V95.8H149.543L149.503 97.6C149.449 99.04 149.336 100.247 149.163 101.22C148.989 102.18 148.743 102.94 148.423 103.5C148.116 104.06 147.736 104.46 147.283 104.7C146.829 104.94 146.309 105.06 145.723 105.06ZM162.549 105.2C161.803 105.2 161.109 105.06 160.469 104.78C159.843 104.487 159.296 104.093 158.829 103.6C158.376 103.093 158.023 102.52 157.769 101.88C157.516 101.227 157.389 100.54 157.389 99.82C157.389 99.0733 157.516 98.38 157.769 97.74C158.023 97.0867 158.383 96.5133 158.849 96.02C159.316 95.5133 159.863 95.12 160.489 94.84C161.129 94.5467 161.823 94.4 162.569 94.4C163.316 94.4 164.003 94.5467 164.629 94.84C165.256 95.12 165.803 95.5133 166.269 96.02C166.736 96.5133 167.096 97.0867 167.349 97.74C167.603 98.38 167.729 99.0733 167.729 99.82C167.729 100.54 167.603 101.227 167.349 101.88C167.096 102.52 166.736 103.093 166.269 103.6C165.816 104.093 165.269 104.487 164.629 104.78C164.003 105.06 163.309 105.2 162.549 105.2ZM158.769 99.84C158.769 100.613 158.936 101.32 159.269 101.96C159.616 102.587 160.076 103.087 160.649 103.46C161.223 103.82 161.856 104 162.549 104C163.243 104 163.876 103.813 164.449 103.44C165.023 103.067 165.483 102.56 165.829 101.92C166.176 101.267 166.349 100.56 166.349 99.8C166.349 99.0267 166.176 98.32 165.829 97.68C165.483 97.04 165.023 96.5333 164.449 96.16C163.876 95.7867 163.243 95.6 162.549 95.6C161.856 95.6 161.223 95.7933 160.649 96.18C160.089 96.5667 159.636 97.08 159.289 97.72C158.943 98.3467 158.769 99.0533 158.769 99.84ZM169.984 105V94.58H176.204V95.8H171.344V105H169.984Z" fill="#3B7A2C"/>
</svg>
