<svg width="17" height="13" viewBox="0 0 17 13" fill="none" xmlns="http://www.w3.org/2000/svg">
<path fill-rule="evenodd" clip-rule="evenodd" d="M14.6133 0.0412167C14.4945 0.0654907 14.2852 0.136864 14.1481 0.199895C13.9065 0.310938 13.7876 0.419714 10.2605 3.75494C8.2593 5.64721 6.57414 7.21812 6.51566 7.24589C6.39245 7.30432 6.25036 7.3104 6.11742 7.26292C6.06598 7.24454 5.37344 6.61688 4.57846 5.8681C3.22707 4.59524 3.11682 4.49912 2.88383 4.39057C2.55886 4.23913 2.30048 4.17944 1.97006 4.17944C0.834455 4.17944 -0.0715078 5.08639 0.00445156 6.14717C0.0267476 6.45823 0.119786 6.74835 0.27855 7.00173C0.371256 7.14971 0.959227 7.72416 2.77986 9.44563C5.06465 11.606 5.16992 11.7007 5.40916 11.8107C6.00713 12.0856 6.5849 12.0807 7.20348 11.7953L7.48592 11.665L11.965 7.42632C14.4285 5.09508 16.502 3.11686 16.5728 3.03028C17.0451 2.45256 17.1313 1.71867 16.8039 1.06264C16.4174 0.288458 15.4992 -0.13972 14.6133 0.0412167Z" fill="#3B7A2C"/>
</svg>
