<svg width="45" height="46" viewBox="0 0 45 46" fill="none" xmlns="http://www.w3.org/2000/svg">
<path d="M9.04516 35.6959H7.65806M9.04516 35.6959V26.3918L7.93548 25.9607M9.04516 35.6959L10.1548 30.6667M9.04516 35.6959L11.5419 36.4503M7.65806 35.6959L7.10323 25.6374L7.93548 25.9607M7.65806 35.6959L2.94194 38.2105M11.5419 36.4503V31.4211M11.5419 36.4503L14.3161 32.6784M11.5419 36.4503L14.0387 36.9532M11.5419 36.4503L5.43871 39.7193M11.5419 31.4211L10.1548 30.6667M11.5419 31.4211L12.929 30.6667M10.1548 30.6667V25.9607L12.0968 26.3918L12.929 30.6667M10.1548 2L8.2129 7.78363L7.93548 25.9607M10.1548 2L13.2065 8.53801M10.1548 2L17.6452 11.0526M13.2065 8.53801L14.0387 30.4152L12.929 30.6667M13.2065 8.53801L17.6452 11.0526M14.0387 30.6667L14.3161 32.6784M14.3161 32.6784L16.2581 29.9123M14.3161 32.6784L17.0903 31.924M17.6452 11.0526L16.7389 23.3743M16.2581 29.9123L16.7389 23.3743M16.2581 29.9123L24.5806 17.0877M16.2581 29.9123H17.9226L21.8065 24.0029M25.9677 14.8246L22.9161 15.5789L16.7389 23.3743M25.9677 14.8246L27.9097 18.5965M25.9677 14.8246L24.5806 17.0877M27.9097 18.5965L25.6903 18.0936M27.9097 18.5965L23.471 29.1579M25.6903 18.0936L24.5806 17.0877M25.6903 18.0936L21.8065 24.0029M25.6903 18.0936L23.471 23.3743M23.471 29.1579H21.529M23.471 29.1579L24.0258 31.924M21.529 29.1579L17.0903 31.924M21.529 29.1579L23.7484 24.883L23.471 23.3743M17.0903 31.924L16.7389 35.4444L14.0387 36.9532M14.0387 36.9532H16.7389M23.471 23.3743L21.8065 24.0029M24.0258 31.924L24.3032 33.4327M24.0258 31.924L22.3613 33.0728M16.7389 36.9532L5.43871 39.7193M16.7389 36.9532L16.2581 39.2164M16.7389 36.9532L22.3613 33.0728M24.3032 33.4327L39.0065 27.6491M24.3032 33.4327L22.3613 33.0728M24.3032 33.4327L24.5806 35.193M39.0065 27.6491L44 29.9123L42.6129 34.6901M39.0065 27.6491L36.2323 31.6725M42.6129 34.6901L39.8387 33.6842M42.6129 34.6901L39.8387 35.7955M16.7389 45L15.1484 42.7368M16.7389 45L13.2065 44.2456M16.7389 45L19.5871 43.8651M15.1484 42.7368L13.2065 44.2456M15.1484 42.7368L15.4258 41.8567M13.2065 44.2456H9.04516L7.93548 43.2398M13.2065 44.2456L12.0968 42.2339M7.93548 43.2398L12.0968 42.2339M7.93548 43.2398L2.94194 45L1 42.2339L2.94194 39.7193V38.2105M7.93548 43.2398V41.731M12.0968 42.2339L17.0903 40.2222M12.0968 42.2339L15.4258 41.8567M2.94194 38.2105V42.7368L5.43871 42.2339M2.94194 38.2105L5.43871 39.7193M5.43871 42.2339V39.7193M5.43871 42.2339L7.93548 41.731M16.2581 39.2164L7.93548 41.731M16.2581 39.2164L17.0903 40.2222M17.0903 40.2222L18.7548 41.4795M17.0903 40.2222L22.9161 35.9474M18.7548 41.4795L15.4258 41.8567M18.7548 41.4795L24.8581 36.9532M18.7548 41.4795L39.8387 33.6842M22.9161 35.9474L22.3613 33.0728M22.9161 35.9474L24.8581 36.9532M24.8581 36.9532L24.5806 35.193M39.8387 33.6842L36.2323 31.6725M36.2323 31.6725L24.5806 35.193M39.8387 35.7955L43.4452 37.4561M39.8387 35.7955L39.5613 39.4678M39.8387 35.7955L20.5254 43.4912M43.4452 37.4561L40.9484 41.4795M43.4452 37.4561L39.5613 39.4678M40.9484 41.4795L39.5613 39.4678M40.9484 41.4795L19.5871 43.8651M39.5613 39.4678L20.5254 43.4912M20.5254 43.4912L19.5871 43.8651" stroke="#D2A364"/>
</svg>
