<svg width="52" height="52" viewBox="0 0 52 52" fill="none" xmlns="http://www.w3.org/2000/svg">
<g clip-path="url(#clip0_93_1561)">
<path d="M32.5078 16.25H6.50781V6.5H32.5078V16.25ZM26.0078 45.5C23.422 45.5 20.942 44.4728 19.1135 42.6443C17.285 40.8158 16.2578 38.3359 16.2578 35.75C16.2578 33.1641 17.285 30.6842 19.1135 28.8557C20.942 27.0272 23.422 26 26.0078 26C28.5937 26 31.0736 27.0272 32.9021 28.8557C34.7306 30.6842 35.7578 33.1641 35.7578 35.75C35.7578 38.3359 34.7306 40.8158 32.9021 42.6443C31.0736 44.4728 28.5937 45.5 26.0078 45.5ZM39.0078 0H6.50781C4.78391 0 3.1306 0.68482 1.91162 1.90381C0.692632 3.12279 0.0078125 4.77609 0.0078125 6.5V45.5C0.0078125 47.2239 0.692632 48.8772 1.91162 50.0962C3.1306 51.3152 4.78391 52 6.50781 52H45.5078C47.2317 52 48.885 51.3152 50.104 50.0962C51.323 48.8772 52.0078 47.2239 52.0078 45.5V13L39.0078 0Z" fill="#848484"/>
</g>
<defs>
<clipPath id="clip0_93_1561">
<rect width="52" height="52" fill="white"/>
</clipPath>
</defs>
</svg>
